<?xml version="1.0" encoding="utf-8"?>
<!-- Svg Vector Icons : http://www.onlinewebfonts.com/icon -->
<!DOCTYPE svg PUBLIC "-//W3C//DTD SVG 1.1//EN" "http://www.w3.org/Graphics/SVG/1.1/DTD/svg11.dtd">
<svg version="1.1" xmlns="http://www.w3.org/2000/svg" xmlns:xlink="http://www.w3.org/1999/xlink" x="0px" y="0px" viewBox="0 0 1000 1000" enable-background="new 0 0 1000 1000" xml:space="preserve">
<metadata> Svg Vector Icons : http://www.onlinewebfonts.com/icon </metadata>
<g><g transform="translate(0.000000,512.000000) scale(0.100000,-0.100000)"><path d="M4668.6,4999.4c-1044.2-136-1937.1-927.4-2195.8-1948.6c-149.4-592.1-90-1218.6,166.7-1760.8c174.4-367.9,507.7-766.4,837.3-1002.1C3796.8,58,4237.5-124,4597.7-172c86.2-13.4,176.3-26.8,201.2-30.7l42.2-7.6v-1908.4V-4027l55.6-55.6c72.8-72.8,141.8-72.8,214.6,0l55.6,55.6v1908.4v1908.4l44.1,7.6c23,3.8,113.1,17.3,199.3,30.7c245.2,32.6,473.3,107.3,743.4,239.5C6789.6,379.9,7262.9,920.2,7485.2,1587c101.6,304.7,124.6,459.9,122.6,827.7c0,293.1-7.7,362.1-51.7,549.9c-122.6,528.8-360.2,946.5-749.2,1324C6243.6,4832.7,5442.7,5099.1,4668.6,4999.4z M5454.2,4646.9c906.3-189.7,1598-883.3,1793.4-1791.5c42.1-195.4,47.9-670.6,9.6-862.2c-162.9-829.6-762.6-1509.8-1552-1764.7c-666.8-212.7-1370-116.9-1965.8,272.1c-178.2,115-503.9,434.9-618.9,603.5c-168.6,251-298.9,561.4-358.3,841.1c-205,996.3,300.8,2040.6,1209,2498.5c251,126.5,469.4,191.6,802.8,239.5C4887,4700.5,5312.4,4677.5,5454.2,4646.9z"/><path d="M5751.1,4154.5c-61.3-32.6-86.2-74.7-86.2-149.4c0-82.4,30.7-115,201.2-212.7c155.2-90,440.7-379.4,534.6-540.3c42.2-72.8,93.9-143.7,115-159c86.2-61.3,226.1-3.8,247.2,99.6c19.2,103.5-178.2,408.1-402.4,622.7c-147.5,139.9-237.6,208.8-390.9,293.1C5833.5,4183.2,5810.6,4187,5751.1,4154.5z"/><path d="M3940.5-3546.1c-659.1-88.2-1082.6-249.1-1187.9-457.9c-47.9-95.8-47.9-159,1.9-260.6c111.1-229.9,569.1-392.8,1358.5-480.9c413.9-46,1368-46,1781.9,0c789.4,88.1,1247.3,251,1358.5,480.9c51.7,103.4,49.8,174.3-3.8,270.1c-122.6,216.5-580.6,379.4-1308.7,461.8c-321.9,36.4-385.1,26.8-427.3-61.3c-32.6-74.7-24.9-120.7,32.6-178.2c46-46,74.7-55.6,205-67.1c195.4-17.2,479-59.4,661-97.7c252.9-51.7,536.5-159,536.5-199.3c0-30.7-201.2-115-394.7-164.8c-835.4-212.7-2282-212.7-3104,0c-191.6,51.7-390.9,134.1-390.9,164.8c0,40.2,283.6,147.5,536.5,199.3c180.1,38.3,465.6,80.5,657.2,97.7c187.8,15.3,251,59.4,251,170.5c0,55.6-13.4,82.4-53.6,116.9C4386.9-3496.3,4327.6-3494.4,3940.5-3546.1z"/></g></g>
</svg>